<svg width="16" height="17" viewBox="0 0 16 17" fill="none" xmlns="http://www.w3.org/2000/svg">
<path d="M14.4102 13.1473L14.4102 13.1474C15.1184 14.1709 14.7891 15.4 13.6639 15.9324L14.4102 13.1473ZM14.4102 13.1473L7.40105 3.01806L7.40091 3.01786M14.4102 13.1473L7.40091 3.01786M7.40091 3.01786C7.22242 2.75964 7.00626 2.52434 6.75881 2.31745C6.95119 2.49146 7.12335 2.68623 7.27097 2.89952L7.27101 2.89957M7.40091 3.01786L7.27101 2.89957M7.27101 2.89957L14.28 13.0288L14.2801 13.029M7.27101 2.89957L14.2801 13.029M14.2801 13.029C15.0085 14.0825 14.6498 15.4218 13.4921 15.9698L13.4916 15.9701M14.2801 13.029L13.4916 15.9701M13.4916 15.9701C13.2964 16.0622 13.0903 16.1238 12.8802 16.1581M13.4916 15.9701L12.8802 16.1581M12.8802 16.1581C13.1569 16.1231 13.4214 16.0471 13.6639 15.9324L12.8802 16.1581ZM2.5504 1.71818L2.55013 1.71831C1.77097 2.08681 1.25562 2.69355 1.06233 3.41494C0.868932 4.1367 1.01158 4.91961 1.50188 5.62769L1.50195 5.62779L7.01982 13.6008C7.02727 13.6116 7.04935 13.632 7.0896 13.6428C7.09263 13.6436 7.0956 13.6443 7.0985 13.645L1.63224 5.74633C1.63224 5.74632 1.63223 5.74631 1.63222 5.7463C1.15235 5.05297 0.983712 4.23473 1.19393 3.4502C1.40417 2.66556 1.9602 2.0412 2.72205 1.68071L2.72214 1.68067C2.95668 1.56974 3.20321 1.48714 3.45688 1.43263C3.13906 1.48807 2.83415 1.58378 2.5504 1.71818ZM10.2691 15.1066L10.269 15.1063L5.56251 8.30453C5.35979 8.01158 5.27813 7.64181 5.3731 7.28735C5.46895 6.92963 5.72138 6.65487 6.04624 6.50123C6.13024 6.4615 6.21736 6.43067 6.30626 6.40839C6.15637 6.43147 6.01051 6.47454 5.87396 6.53903C5.53156 6.70102 5.32013 6.95879 5.24153 7.25213C5.16447 7.53971 5.22133 7.88108 5.43231 8.18598L5.43233 8.186L10.1387 14.9878C10.2914 15.2084 10.4826 15.4066 10.7048 15.5753C10.54 15.4405 10.3921 15.2841 10.2691 15.1066ZM8.05803 7.12402C7.97216 6.99994 7.86745 6.88972 7.74919 6.7948C7.8151 6.85867 7.87519 6.92914 7.92813 7.00586C7.92817 7.00592 7.92821 7.00598 7.92826 7.00604L11.1421 11.6509L11.1422 11.651C11.1495 11.6616 11.1715 11.6821 11.2118 11.6929C11.2148 11.6937 11.2178 11.6944 11.2207 11.695L8.05803 7.12402Z" fill="white" stroke="white"/>
</svg>
